<svg width="48" height="48" viewBox="0 0 48 48" fill="none" xmlns="http://www.w3.org/2000/svg">
<g clip-path="url(#clip0_26_129)">
<circle cx="12" cy="36" r="11.5" fill="#C3E2FF" stroke="#C3E2FF"/>
<circle cx="36" cy="12" r="11.5" fill="#C3E2FF" stroke="#C3E2FF"/>
<path d="M37.3333 26.6667C43.2244 26.6667 48 31.4423 48 37.3333" stroke="#C3E2FF"/>
<path d="M37.3333 48C31.4423 48 26.6667 43.2244 26.6667 37.3333" stroke="#C3E2FF"/>
<path d="M48 37.3333C48 43.2244 43.2244 48 37.3333 48" stroke="#C3E2FF"/>
<path d="M10.6667 5.72205e-06C16.5577 5.46454e-06 21.3333 4.77563 21.3333 10.6667" stroke="#C3E2FF"/>
<path d="M-9.53674e-06 10.6667C-1.00518e-05 4.77564 4.77562 6.23706e-06 10.6667 5.72205e-06" stroke="#C3E2FF"/>
<path d="M10.6667 21.3333C4.77562 21.3333 -9.79425e-06 16.5577 -9.53674e-06 10.6667" stroke="#C3E2FF"/>
<path d="M10.6667 21.3333C19.5032 21.3333 26.6667 28.4968 26.6667 37.3333" stroke="#C3E2FF"/>
<path d="M37.3333 26.6667C28.4968 26.6667 21.3333 19.5032 21.3333 10.6667" stroke="#C3E2FF"/>
<circle r="1.28571" transform="matrix(1 0 0 -1 12.4286 12.4286)" fill="#752A04"/>
<circle r="1.28571" transform="matrix(1 0 0 -1 9.85713 9.85715)" fill="#752A04"/>
<circle cx="7.28571" cy="7.28571" r="1.28571" fill="#752A04"/>
<circle cx="12.4286" cy="7.28571" r="1.28571" fill="#752A04"/>
<circle cx="7.28571" cy="12.4286" r="1.28571" fill="#752A04"/>
<circle cx="9.85713" cy="15" r="1.28571" fill="#752A04"/>
<circle cx="12.4286" cy="17.5714" r="1.28571" fill="#752A04"/>
<circle cx="15" cy="9.85714" r="1.28571" fill="#752A04"/>
<circle cx="17.5714" cy="12.4286" r="1.28571" fill="#752A04"/>
<circle r="1.28571" transform="matrix(1 0 0 -1 20.1429 20.1429)" fill="#752A04"/>
<circle r="1.28571" transform="matrix(1 0 0 -1 17.5714 17.5714)" fill="#752A04"/>
<circle r="1.28571" transform="matrix(1 0 0 -1 15 15)" fill="#752A04"/>
<circle r="1.28571" transform="matrix(1 0 0 -1 30.4286 17.5714)" fill="#752A04"/>
<circle r="1.28571" transform="matrix(1 0 0 -1 33 9.85715)" fill="#752A04"/>
<circle r="1.28571" transform="matrix(1 0 0 -1 35.5714 7.28571)" fill="#752A04"/>
<circle r="1.28571" transform="matrix(1 0 0 -1 40.7143 12.4286)" fill="#752A04"/>
<circle r="1.28571" transform="matrix(1 0 0 -1 38.1429 15)" fill="#752A04"/>
<circle r="1.28571" transform="matrix(1 0 0 -1 35.5714 17.5714)" fill="#752A04"/>
<circle r="1.28571" transform="matrix(1 0 0 -1 30.4286 12.4286)" fill="#752A04"/>
<circle r="1.28571" transform="matrix(1 0 0 -1 17.5714 30.4286)" fill="#752A04"/>
<circle r="1.28571" transform="matrix(1 0 0 -1 15 33)" fill="#752A04"/>
<circle r="1.28571" transform="matrix(1 0 0 -1 12.4286 30.4286)" fill="#752A04"/>
<circle r="1.28571" transform="matrix(1 0 0 -1 17.5714 35.5714)" fill="#752A04"/>
<circle r="1.28571" transform="matrix(1 0 0 -1 15 38.1429)" fill="#752A04"/>
<circle r="1.28571" transform="matrix(1 0 0 -1 12.4286 40.7143)" fill="#752A04"/>
<circle r="1.28571" transform="matrix(1 0 0 -1 12.4286 35.5714)" fill="#752A04"/>
<circle r="1.28571" transform="matrix(1 0 0 -1 9.85713 33)" fill="#752A04"/>
<circle r="1.28571" transform="matrix(1 0 0 -1 9.85713 38.1429)" fill="#752A04"/>
<circle r="1.28571" transform="matrix(1 0 0 -1 7.28571 35.5714)" fill="#752A04"/>
<circle r="1.28571" transform="matrix(1 0 0 -1 7.28571 40.7143)" fill="#752A04"/>
<circle r="1.28571" transform="matrix(1 0 0 -1 33 15)" fill="#752A04"/>
<circle r="1.28571" transform="matrix(1 0 0 -1 35.5714 12.4286)" fill="#752A04"/>
<circle r="1.28571" transform="matrix(1 0 0 -1 38.1429 9.85715)" fill="#752A04"/>
<circle r="1.28571" transform="matrix(1 0 0 -1 40.7143 7.28571)" fill="#752A04"/>
<circle r="1.28571" transform="matrix(1 0 0 -1 27.8571 27.8571)" fill="#752A04"/>
<circle r="1.28571" transform="matrix(1 0 0 -1 30.4286 30.4286)" fill="#752A04"/>
<circle r="1.28571" transform="matrix(1 0 0 -1 33 33)" fill="#752A04"/>
<circle r="1.28571" transform="matrix(1 0 0 -1 35.5714 30.4286)" fill="#752A04"/>
<circle r="1.28571" transform="matrix(1 0 0 -1 38.1429 33)" fill="#752A04"/>
<circle r="1.28571" transform="matrix(1 0 0 -1 40.7143 35.5714)" fill="#752A04"/>
<circle r="1.28571" transform="matrix(1 0 0 -1 35.5714 40.7143)" fill="#752A04"/>
<circle r="1.28571" transform="matrix(1 0 0 -1 33 38.1429)" fill="#752A04"/>
<circle r="1.28571" transform="matrix(1 0 0 -1 30.4286 35.5714)" fill="#752A04"/>
<circle r="1.28571" transform="matrix(1 0 0 -1 35.5714 35.5714)" fill="#752A04"/>
<circle r="1.28571" transform="matrix(1 0 0 -1 38.1429 38.1429)" fill="#752A04"/>
<circle r="1.28571" transform="matrix(1 0 0 -1 40.7143 40.7143)" fill="#752A04"/>
</g>
<defs>
<clipPath id="clip0_26_129">
<rect width="48" height="48" fill="white"/>
</clipPath>
</defs>
</svg>
