<svg width="400" height="400" viewBox="0 0 400 400" fill="none" xmlns="http://www.w3.org/2000/svg">
<rect width="400" height="400" rx="200" fill="#C3E2FF"/>
<circle cx="125" cy="275" r="75" fill="#752A04" stroke="#752A04" stroke-width="2"/>
<circle cx="275" cy="125" r="75" fill="#752A04" stroke="#752A04" stroke-width="2"/>
<path d="M281.818 220.454C319.474 220.454 350 247.928 350 281.818" stroke="#752A04" stroke-width="20"/>
<path d="M281.818 350C247.928 350 220.454 319.474 220.454 281.818" stroke="#752A04" stroke-width="20"/>
<path d="M350 281.818C350 319.474 319.474 350 281.818 350" stroke="#752A04" stroke-width="20"/>
<path d="M118.182 49.9999C152.072 49.9999 179.546 80.5259 179.546 118.182" stroke="#752A04" stroke-width="20"/>
<path d="M50.0001 118.182C50.0001 80.526 80.5261 49.9999 118.182 49.9999" stroke="#752A04" stroke-width="20"/>
<path d="M118.182 179.545C80.5261 179.545 50.0001 152.072 50.0001 118.182" stroke="#752A04" stroke-width="20"/>
<path d="M118.182 179.545C174.666 179.545 220.455 225.334 220.455 281.818" stroke="#752A04" stroke-width="20"/>
<path d="M281.818 220.454C225.334 220.454 179.545 174.665 179.545 118.182" stroke="#752A04" stroke-width="20"/>
</svg>
