<svg width="48" height="48" viewBox="0 0 48 48" fill="none" xmlns="http://www.w3.org/2000/svg">
<circle cx="13" cy="35" r="11" fill="#752A04" stroke="#752A04" stroke-width="2"/>
<circle cx="35" cy="13" r="11" fill="#752A04" stroke="#752A04" stroke-width="2"/>
<path d="M36 27C41.5228 27 46 31.0294 46 36" stroke="#752A04" stroke-width="2"/>
<path d="M36 46C31.0294 46 27 41.5228 27 36" stroke="#752A04" stroke-width="2"/>
<path d="M46 36C46 41.5228 41.5228 46 36 46" stroke="#752A04" stroke-width="2"/>
<path d="M12 2C16.9706 2 21 6.47715 21 12" stroke="#752A04" stroke-width="2"/>
<path d="M2 12C2 6.47715 6.47715 2 12 2" stroke="#752A04" stroke-width="2"/>
<path d="M12 21C6.47715 21 2 16.9706 2 12" stroke="#752A04" stroke-width="2"/>
<path d="M12 21C20.2843 21 27 27.7157 27 36" stroke="#752A04" stroke-width="2"/>
<path d="M36 27C27.7157 27 21 20.2843 21 12" stroke="#752A04" stroke-width="2"/>
<circle r="1.21429" transform="matrix(1 0 0 -1 32.5 10.6429)" fill="#C3E2FF"/>
<circle r="1.21429" transform="matrix(1 0 0 -1 34.9286 8.21429)" fill="#C3E2FF"/>
<circle r="1.21429" transform="matrix(1 0 0 -1 39.7857 13.0714)" fill="#C3E2FF"/>
<circle r="1.21429" transform="matrix(1 0 0 -1 37.3572 15.5)" fill="#C3E2FF"/>
<circle r="1.21429" transform="matrix(1 0 0 -1 34.9286 17.9286)" fill="#C3E2FF"/>
<circle r="1.21429" transform="matrix(1 0 0 -1 30.0714 13.0714)" fill="#C3E2FF"/>
<circle r="1.21429" transform="matrix(1 0 0 -1 17.9286 30.0714)" fill="#C3E2FF"/>
<circle r="1.21429" transform="matrix(1 0 0 -1 15.5 32.5)" fill="#C3E2FF"/>
<circle r="1.21429" transform="matrix(1 0 0 -1 13.0714 30.0714)" fill="#C3E2FF"/>
<circle r="1.21429" transform="matrix(1 0 0 -1 17.9286 34.9286)" fill="#C3E2FF"/>
<circle r="1.21429" transform="matrix(1 0 0 -1 15.5 37.3571)" fill="#C3E2FF"/>
<circle r="1.21429" transform="matrix(1 0 0 -1 13.0714 39.7857)" fill="#C3E2FF"/>
<circle r="1.21429" transform="matrix(1 0 0 -1 13.0714 34.9286)" fill="#C3E2FF"/>
<circle r="1.21429" transform="matrix(1 0 0 -1 10.6428 32.5)" fill="#C3E2FF"/>
<circle r="1.21429" transform="matrix(1 0 0 -1 10.6428 37.3571)" fill="#C3E2FF"/>
<circle r="1.21429" transform="matrix(1 0 0 -1 8.21429 34.9286)" fill="#C3E2FF"/>
<circle r="1.21429" transform="matrix(1 0 0 -1 8.21429 39.7857)" fill="#C3E2FF"/>
<circle r="1.21429" transform="matrix(1 0 0 -1 32.5 15.5)" fill="#C3E2FF"/>
<circle r="1.21429" transform="matrix(1 0 0 -1 34.9286 13.0714)" fill="#C3E2FF"/>
<circle r="1.21429" transform="matrix(1 0 0 -1 37.3572 10.6429)" fill="#C3E2FF"/>
<circle r="1.21429" transform="matrix(1 0 0 -1 30.0714 17.9286)" fill="#C3E2FF"/>
<circle r="1.21429" transform="matrix(1 0 0 -1 39.7857 8.21429)" fill="#C3E2FF"/>
<circle r="1.21429" transform="matrix(1 0 0 -1 13.0714 13.0714)" fill="#752A04"/>
<circle r="1.21429" transform="matrix(1 0 0 -1 10.6428 10.6429)" fill="#752A04"/>
<circle cx="8.21429" cy="8.21429" r="1.21429" fill="#752A04"/>
<circle cx="13.0714" cy="8.21429" r="1.21429" fill="#752A04"/>
<circle cx="8.21429" cy="13.0714" r="1.21429" fill="#752A04"/>
<circle cx="10.6428" cy="15.5" r="1.21429" fill="#752A04"/>
<circle cx="13.0714" cy="17.9286" r="1.21429" fill="#752A04"/>
<circle cx="15.5" cy="10.6429" r="1.21429" fill="#752A04"/>
<circle cx="17.9286" cy="13.0714" r="1.21429" fill="#752A04"/>
<circle r="1.21429" transform="matrix(1 0 0 -1 20.3571 20.3571)" fill="#752A04"/>
<circle r="1.21429" transform="matrix(1 0 0 -1 17.9286 17.9286)" fill="#752A04"/>
<circle r="1.21429" transform="matrix(1 0 0 -1 15.5 15.5)" fill="#752A04"/>
<circle r="1.21429" transform="matrix(1 0 0 -1 27.6428 27.6429)" fill="#752A04"/>
<circle r="1.21429" transform="matrix(1 0 0 -1 30.0714 30.0714)" fill="#752A04"/>
<circle r="1.21429" transform="matrix(1 0 0 -1 32.5 32.5)" fill="#752A04"/>
<circle r="1.21429" transform="matrix(1 0 0 -1 34.9286 30.0714)" fill="#752A04"/>
<circle r="1.21429" transform="matrix(1 0 0 -1 37.3572 32.5)" fill="#752A04"/>
<circle r="1.21429" transform="matrix(1 0 0 -1 39.7857 34.9286)" fill="#752A04"/>
<circle r="1.21429" transform="matrix(1 0 0 -1 34.9286 39.7857)" fill="#752A04"/>
<circle r="1.21429" transform="matrix(1 0 0 -1 32.5 37.3571)" fill="#752A04"/>
<circle r="1.21429" transform="matrix(1 0 0 -1 30.0714 34.9286)" fill="#752A04"/>
<circle r="1.21429" transform="matrix(1 0 0 -1 34.9286 34.9286)" fill="#752A04"/>
<circle r="1.21429" transform="matrix(1 0 0 -1 37.3572 37.3571)" fill="#752A04"/>
<circle r="1.21429" transform="matrix(1 0 0 -1 39.7857 39.7857)" fill="#752A04"/>
</svg>
