<svg width="48" height="48" viewBox="0 0 48 48" fill="none" xmlns="http://www.w3.org/2000/svg">
<g clip-path="url(#clip0_34_529)">
<rect width="48" height="48" rx="24" fill="#C3E2FF"/>
<circle r="3.00001" transform="matrix(0.707107 0.707107 0.707107 -0.707107 23.9999 15.7279)" fill="#752A04"/>
<circle r="3.00001" transform="matrix(0.707107 0.707107 0.707107 -0.707107 32.4854 15.728)" fill="#752A04"/>
<circle r="3.00001" transform="matrix(0.707107 0.707107 0.707107 -0.707107 32.4853 32.6985)" fill="#752A04"/>
<circle r="3.00001" transform="matrix(0.707107 0.707107 0.707107 -0.707107 24 32.6985)" fill="#752A04"/>
<circle r="3.00001" transform="matrix(0.707107 0.707107 0.707107 -0.707107 15.5147 32.6986)" fill="#752A04"/>
<circle r="3.00001" transform="matrix(0.707107 0.707107 0.707107 -0.707107 15.5147 15.7279)" fill="#752A04"/>
<circle r="3.00001" transform="matrix(0.707107 0.707107 0.707107 -0.707107 15.5147 24.2132)" fill="#752A04"/>
<circle r="3.00001" transform="matrix(0.707107 0.707107 0.707107 -0.707107 24 24.2133)" fill="#752A04"/>
<circle r="3.00001" transform="matrix(0.707107 0.707107 0.707107 -0.707107 32.4853 24.2132)" fill="#752A04"/>
<circle r="3.00001" transform="matrix(0.707107 0.707107 0.707107 -0.707107 7.02942 24.2132)" fill="#752A04"/>
<circle r="3.00001" transform="matrix(0.707107 0.707107 0.707107 -0.707107 40.9706 24.2132)" fill="#752A04"/>
<line x1="24" y1="13" x2="24" y2="4.37114e-08" stroke="#752A04" stroke-width="2"/>
<path d="M24 35V39C24 40.1046 24.8954 41 26 41H48" stroke="#752A04" stroke-width="2" stroke-linecap="round"/>
</g>
<defs>
<clipPath id="clip0_34_529">
<rect width="48" height="48" rx="24" fill="white"/>
</clipPath>
</defs>
</svg>
