<svg width="800" height="400" viewBox="0 0 800 400" fill="none" xmlns="http://www.w3.org/2000/svg">
<rect width="800" height="400" fill="#C3E2FF"/>
<circle cx="325" cy="275" r="75" fill="#752A04" stroke="#752A04" stroke-width="2"/>
<circle cx="475" cy="125" r="75" fill="#752A04" stroke="#752A04" stroke-width="2"/>
<path d="M481.818 220.455C519.474 220.455 550 247.928 550 281.818" stroke="#752A04" stroke-width="2"/>
<path d="M481.818 350C447.928 350 420.454 319.474 420.454 281.818" stroke="#752A04" stroke-width="2"/>
<path d="M550 281.818C550 319.474 519.474 350 481.818 350" stroke="#752A04" stroke-width="2"/>
<path d="M318.182 50C352.072 50 379.546 80.526 379.546 118.182" stroke="#752A04" stroke-width="2"/>
<path d="M250 118.182C250 80.526 280.526 50 318.182 50" stroke="#752A04" stroke-width="2"/>
<path d="M318.182 179.545C280.526 179.545 250 152.072 250 118.182" stroke="#752A04" stroke-width="2"/>
<path d="M318.182 179.545C374.666 179.545 420.455 225.335 420.455 281.818" stroke="#752A04" stroke-width="2"/>
<path d="M481.818 220.455C425.334 220.455 379.545 174.666 379.545 118.182" stroke="#752A04" stroke-width="2"/>
<circle r="8.57143" transform="matrix(1 0 0 -1 460 105.714)" fill="#C3E2FF"/>
<circle r="8.57143" transform="matrix(1 0 0 -1 477.143 88.5714)" fill="#C3E2FF"/>
<circle r="8.57143" transform="matrix(1 0 0 -1 511.428 122.857)" fill="#C3E2FF"/>
<circle r="8.57143" transform="matrix(1 0 0 -1 494.286 140)" fill="#C3E2FF"/>
<circle r="8.57143" transform="matrix(1 0 0 -1 477.143 157.143)" fill="#C3E2FF"/>
<circle r="8.57143" transform="matrix(1 0 0 -1 442.857 122.857)" fill="#C3E2FF"/>
<circle r="8.57143" transform="matrix(1 0 0 -1 357.143 242.857)" fill="#C3E2FF"/>
<circle r="8.57143" transform="matrix(1 0 0 -1 340 260)" fill="#C3E2FF"/>
<circle r="8.57143" transform="matrix(1 0 0 -1 322.857 242.857)" fill="#C3E2FF"/>
<circle r="8.57143" transform="matrix(1 0 0 -1 357.143 277.143)" fill="#C3E2FF"/>
<circle r="8.57143" transform="matrix(1 0 0 -1 340 294.286)" fill="#C3E2FF"/>
<circle r="8.57143" transform="matrix(1 0 0 -1 322.857 311.429)" fill="#C3E2FF"/>
<circle r="8.57143" transform="matrix(1 0 0 -1 322.857 277.143)" fill="#C3E2FF"/>
<circle r="8.57143" transform="matrix(1 0 0 -1 305.714 260)" fill="#C3E2FF"/>
<circle r="8.57143" transform="matrix(1 0 0 -1 305.714 294.286)" fill="#C3E2FF"/>
<circle r="8.57143" transform="matrix(1 0 0 -1 288.571 277.143)" fill="#C3E2FF"/>
<circle r="8.57143" transform="matrix(1 0 0 -1 288.571 311.429)" fill="#C3E2FF"/>
<circle r="8.57143" transform="matrix(1 0 0 -1 460 140)" fill="#C3E2FF"/>
<circle r="8.57143" transform="matrix(1 0 0 -1 477.143 122.857)" fill="#C3E2FF"/>
<circle r="8.57143" transform="matrix(1 0 0 -1 494.286 105.714)" fill="#C3E2FF"/>
<circle r="8.57143" transform="matrix(1 0 0 -1 442.857 157.143)" fill="#C3E2FF"/>
<circle r="8.57143" transform="matrix(1 0 0 -1 511.428 88.5714)" fill="#C3E2FF"/>
<circle r="8.57143" transform="matrix(1 0 0 -1 322.857 122.857)" fill="#752A04"/>
<circle r="8.57143" transform="matrix(1 0 0 -1 305.714 105.714)" fill="#752A04"/>
<circle cx="288.571" cy="88.5714" r="8.57143" fill="#752A04"/>
<circle cx="322.857" cy="88.5714" r="8.57143" fill="#752A04"/>
<circle cx="288.571" cy="122.857" r="8.57143" fill="#752A04"/>
<circle cx="305.714" cy="140" r="8.57143" fill="#752A04"/>
<circle cx="322.857" cy="157.143" r="8.57143" fill="#752A04"/>
<circle cx="340" cy="105.714" r="8.57143" fill="#752A04"/>
<circle cx="357.143" cy="122.857" r="8.57143" fill="#752A04"/>
<circle r="8.57143" transform="matrix(1 0 0 -1 374.286 174.286)" fill="#752A04"/>
<circle r="8.57143" transform="matrix(1 0 0 -1 357.143 157.143)" fill="#752A04"/>
<circle r="8.57143" transform="matrix(1 0 0 -1 340 140)" fill="#752A04"/>
<circle r="8.57143" transform="matrix(1 0 0 -1 425.714 225.714)" fill="#752A04"/>
<circle r="8.57143" transform="matrix(1 0 0 -1 442.857 242.857)" fill="#752A04"/>
<circle r="8.57143" transform="matrix(1 0 0 -1 460 260)" fill="#752A04"/>
<circle r="8.57143" transform="matrix(1 0 0 -1 477.143 242.857)" fill="#752A04"/>
<circle r="8.57143" transform="matrix(1 0 0 -1 494.286 260)" fill="#752A04"/>
<circle r="8.57143" transform="matrix(1 0 0 -1 511.428 277.143)" fill="#752A04"/>
<circle r="8.57143" transform="matrix(1 0 0 -1 477.143 311.429)" fill="#752A04"/>
<circle r="8.57143" transform="matrix(1 0 0 -1 460 294.286)" fill="#752A04"/>
<circle r="8.57143" transform="matrix(1 0 0 -1 442.857 277.143)" fill="#752A04"/>
<circle r="8.57143" transform="matrix(1 0 0 -1 477.143 277.143)" fill="#752A04"/>
<circle r="8.57143" transform="matrix(1 0 0 -1 494.286 294.286)" fill="#752A04"/>
<circle r="8.57143" transform="matrix(1 0 0 -1 511.428 311.429)" fill="#752A04"/>
</svg>
