<svg width="400" height="400" viewBox="0 0 400 400" fill="none" xmlns="http://www.w3.org/2000/svg">
<rect width="400" height="400" rx="200" fill="#C3E2FF"/>
<circle cx="125" cy="275" r="75" fill="#752A04" stroke="#752A04" stroke-width="2"/>
<circle cx="275" cy="125" r="75" fill="#752A04" stroke="#752A04" stroke-width="2"/>
<path d="M281.818 220.455C319.474 220.455 350 247.928 350 281.818" stroke="#752A04" stroke-width="2"/>
<path d="M281.818 350C247.928 350 220.454 319.474 220.454 281.818" stroke="#752A04" stroke-width="2"/>
<path d="M350 281.818C350 319.474 319.474 350 281.818 350" stroke="#752A04" stroke-width="2"/>
<path d="M118.182 50C152.072 50 179.546 80.526 179.546 118.182" stroke="#752A04" stroke-width="2"/>
<path d="M50.0001 118.182C50.0001 80.526 80.5261 50 118.182 50" stroke="#752A04" stroke-width="2"/>
<path d="M118.182 179.545C80.5261 179.545 50.0001 152.072 50.0001 118.182" stroke="#752A04" stroke-width="2"/>
<path d="M118.182 179.545C174.666 179.545 220.455 225.335 220.455 281.818" stroke="#752A04" stroke-width="2"/>
<path d="M281.818 220.455C225.334 220.455 179.545 174.666 179.545 118.182" stroke="#752A04" stroke-width="2"/>
<circle r="8.57143" transform="matrix(1 0 0 -1 260 105.714)" fill="#C3E2FF"/>
<circle r="8.57143" transform="matrix(1 0 0 -1 277.143 88.5714)" fill="#C3E2FF"/>
<circle r="8.57143" transform="matrix(1 0 0 -1 311.428 122.857)" fill="#C3E2FF"/>
<circle r="8.57143" transform="matrix(1 0 0 -1 294.286 140)" fill="#C3E2FF"/>
<circle r="8.57143" transform="matrix(1 0 0 -1 277.143 157.143)" fill="#C3E2FF"/>
<circle r="8.57143" transform="matrix(1 0 0 -1 242.857 122.857)" fill="#C3E2FF"/>
<circle r="8.57143" transform="matrix(1 0 0 -1 157.143 242.857)" fill="#C3E2FF"/>
<circle r="8.57143" transform="matrix(1 0 0 -1 140 260)" fill="#C3E2FF"/>
<circle r="8.57143" transform="matrix(1 0 0 -1 122.857 242.857)" fill="#C3E2FF"/>
<circle r="8.57143" transform="matrix(1 0 0 -1 157.143 277.143)" fill="#C3E2FF"/>
<circle r="8.57143" transform="matrix(1 0 0 -1 140 294.286)" fill="#C3E2FF"/>
<circle r="8.57143" transform="matrix(1 0 0 -1 122.857 311.429)" fill="#C3E2FF"/>
<circle r="8.57143" transform="matrix(1 0 0 -1 122.857 277.143)" fill="#C3E2FF"/>
<circle r="8.57143" transform="matrix(1 0 0 -1 105.714 260)" fill="#C3E2FF"/>
<circle r="8.57143" transform="matrix(1 0 0 -1 105.714 294.286)" fill="#C3E2FF"/>
<circle r="8.57143" transform="matrix(1 0 0 -1 88.5714 277.143)" fill="#C3E2FF"/>
<circle r="8.57143" transform="matrix(1 0 0 -1 88.5714 311.429)" fill="#C3E2FF"/>
<circle r="8.57143" transform="matrix(1 0 0 -1 260 140)" fill="#C3E2FF"/>
<circle r="8.57143" transform="matrix(1 0 0 -1 277.143 122.857)" fill="#C3E2FF"/>
<circle r="8.57143" transform="matrix(1 0 0 -1 294.286 105.714)" fill="#C3E2FF"/>
<circle r="8.57143" transform="matrix(1 0 0 -1 242.857 157.143)" fill="#C3E2FF"/>
<circle r="8.57143" transform="matrix(1 0 0 -1 311.428 88.5714)" fill="#C3E2FF"/>
<circle r="8.57143" transform="matrix(1 0 0 -1 122.857 122.857)" fill="#752A04"/>
<circle r="8.57143" transform="matrix(1 0 0 -1 105.714 105.714)" fill="#752A04"/>
<circle cx="88.5714" cy="88.5714" r="8.57143" fill="#752A04"/>
<circle cx="122.857" cy="88.5714" r="8.57143" fill="#752A04"/>
<circle cx="88.5714" cy="122.857" r="8.57143" fill="#752A04"/>
<circle cx="105.714" cy="140" r="8.57143" fill="#752A04"/>
<circle cx="122.857" cy="157.143" r="8.57143" fill="#752A04"/>
<circle cx="140" cy="105.714" r="8.57143" fill="#752A04"/>
<circle cx="157.143" cy="122.857" r="8.57143" fill="#752A04"/>
<circle r="8.57143" transform="matrix(1 0 0 -1 174.286 174.286)" fill="#752A04"/>
<circle r="8.57143" transform="matrix(1 0 0 -1 157.143 157.143)" fill="#752A04"/>
<circle r="8.57143" transform="matrix(1 0 0 -1 140 140)" fill="#752A04"/>
<circle r="8.57143" transform="matrix(1 0 0 -1 225.714 225.714)" fill="#752A04"/>
<circle r="8.57143" transform="matrix(1 0 0 -1 242.857 242.857)" fill="#752A04"/>
<circle r="8.57143" transform="matrix(1 0 0 -1 260 260)" fill="#752A04"/>
<circle r="8.57143" transform="matrix(1 0 0 -1 277.143 242.857)" fill="#752A04"/>
<circle r="8.57143" transform="matrix(1 0 0 -1 294.286 260)" fill="#752A04"/>
<circle r="8.57143" transform="matrix(1 0 0 -1 311.428 277.143)" fill="#752A04"/>
<circle r="8.57143" transform="matrix(1 0 0 -1 277.143 311.429)" fill="#752A04"/>
<circle r="8.57143" transform="matrix(1 0 0 -1 260 294.286)" fill="#752A04"/>
<circle r="8.57143" transform="matrix(1 0 0 -1 242.857 277.143)" fill="#752A04"/>
<circle r="8.57143" transform="matrix(1 0 0 -1 277.143 277.143)" fill="#752A04"/>
<circle r="8.57143" transform="matrix(1 0 0 -1 294.286 294.286)" fill="#752A04"/>
<circle r="8.57143" transform="matrix(1 0 0 -1 311.428 311.429)" fill="#752A04"/>
</svg>
