<svg width="40" height="40" viewBox="0 0 40 40" fill="none" xmlns="http://www.w3.org/2000/svg">
<rect width="40" height="40" rx="20" fill="#C3E2FF"/>
<circle cx="14.5" cy="25.5" r="5.5" fill="#752A04" stroke="#752A04" stroke-width="2"/>
<circle cx="25.5" cy="14.5" r="5.5" fill="#752A04" stroke="#752A04" stroke-width="2"/>
<path d="M26 21.5C28.7614 21.5 31 23.5147 31 26" stroke="#752A04" stroke-width="2"/>
<path d="M26 31C23.5147 31 21.5 28.7614 21.5 26" stroke="#752A04" stroke-width="2"/>
<path d="M31 26C31 28.7614 28.7614 31 26 31" stroke="#752A04" stroke-width="2"/>
<path d="M14 9C16.4853 9 18.5 11.2386 18.5 14" stroke="#752A04" stroke-width="2"/>
<path d="M9 14C9 11.2386 11.2386 9 14 9" stroke="#752A04" stroke-width="2"/>
<path d="M14 18.5C11.2386 18.5 9 16.4853 9 14" stroke="#752A04" stroke-width="2"/>
<path d="M14 18.5C18.1421 18.5 21.5 21.8579 21.5 26" stroke="#752A04" stroke-width="2"/>
<path d="M26 21.5C21.8579 21.5 18.5 18.1421 18.5 14" stroke="#752A04" stroke-width="2"/>
</svg>
