<svg width="48" height="48" viewBox="0 0 48 48" fill="none" xmlns="http://www.w3.org/2000/svg">
<g clip-path="url(#clip0_6_1019)">
<path id="fav" fill-rule="evenodd" clip-rule="evenodd" d="M7.87398 5C7.42994 6.72523 5.86384 8 4 8C1.79086 8 0 6.20914 0 4C0 1.79086 1.79086 0 4 0C5.86384 0 7.42994 1.27477 7.87398 3H20H24H38C41.866 3 45 6.13401 45 10V40.126C46.7252 40.5701 48 42.1362 48 44C48 46.2091 46.2091 48 44 48C41.7909 48 40 46.2091 40 44C40 42.1362 41.2748 40.5701 43 40.126V10C43 7.23858 40.7614 5 38 5H24V13.1093L31.1949 19.5847C32.0537 19.2087 33.0025 19 34 19C37.866 19 41 22.134 41 26C41 29.866 37.866 33 34 33C30.134 33 27 29.866 27 26C27 24.5988 27.4117 23.2938 28.1207 22.1993L24 18.4907V30.2899C26.8915 31.1504 29 33.829 29 37C29 40.866 25.866 44 22 44C18.134 44 15 40.866 15 37C15 33.829 17.1085 31.1504 20 30.2899V18.4907L15.8793 22.1993C16.5883 23.2938 17 24.5988 17 26C17 29.866 13.866 33 10 33C6.13401 33 3 29.866 3 26C3 22.134 6.13401 19 10 19C10.9975 19 11.9463 19.2087 12.8051 19.5847L20 13.1093V5H7.87398Z" fill="#752A04"/>
</g>
<defs>
<clipPath id="clip0_6_1019">
<rect width="48" height="48" fill="white"/>
</clipPath>
</defs>
<style>
@media (prefers-color-scheme: light) {
     #fav {
        fill: #752a04;
      }
    }
    @media (prefers-color-scheme: dark) {
     #fav {
        fill: navajowhite;
      }
    }
  </style>
</svg>
